<mxfile host="app.diagrams.net" modified="2024-05-27T10:44:39.244Z" agent="Mozilla/5.0 (Windows NT 10.0; Win64; x64) AppleWebKit/537.36 (KHTML, like Gecko) Chrome/125.0.0.0 Safari/537.36" etag="4g8rYmKNv4rZFMbTuY5O" version="24.4.8" type="device">
  <diagram name="Page-1" id="no7irGMhIS9FXsW124I6">
    <mxGraphModel dx="854" dy="439" grid="1" gridSize="10" guides="1" tooltips="1" connect="1" arrows="1" fold="1" page="1" pageScale="1" pageWidth="850" pageHeight="1100" math="0" shadow="0">
      <root>
        <mxCell id="0" />
        <mxCell id="1" parent="0" />
        <mxCell id="1-7lZY4niqh5dMCVsXn9-294" value="signals" style="text;html=1;align=center;verticalAlign=middle;whiteSpace=wrap;rounded=0;fontSize=10;" vertex="1" parent="1">
          <mxGeometry x="1040" y="358" width="60" height="30" as="geometry" />
        </mxCell>
        <mxCell id="1-7lZY4niqh5dMCVsXn9-52" value="opertaiion" style="text;html=1;align=center;verticalAlign=middle;resizable=0;points=[];autosize=1;strokeColor=none;fillColor=none;fontSize=10;" vertex="1" parent="1">
          <mxGeometry x="157" y="466" width="70" height="30" as="geometry" />
        </mxCell>
        <mxCell id="1-7lZY4niqh5dMCVsXn9-15" value="&lt;p style=&quot;line-height: 100%; font-size: 10px;&quot;&gt;&lt;font style=&quot;font-size: 10px;&quot;&gt;latch_r1&lt;/font&gt;&lt;/p&gt;" style="text;html=1;align=center;verticalAlign=middle;resizable=0;points=[];autosize=1;strokeColor=none;fillColor=none;fontSize=10;" vertex="1" parent="1">
          <mxGeometry x="267" y="83" width="60" height="40" as="geometry" />
        </mxCell>
        <mxCell id="1-7lZY4niqh5dMCVsXn9-13" value="&lt;p style=&quot;line-height: 100%; font-size: 10px;&quot;&gt;&lt;font style=&quot;font-size: 10px;&quot;&gt;latch_r2&lt;/font&gt;&lt;/p&gt;" style="text;html=1;align=center;verticalAlign=middle;resizable=0;points=[];autosize=1;strokeColor=none;fillColor=none;fontSize=10;" vertex="1" parent="1">
          <mxGeometry x="267" y="162" width="60" height="40" as="geometry" />
        </mxCell>
        <mxCell id="1-7lZY4niqh5dMCVsXn9-11" value="&lt;p style=&quot;line-height: 100%; font-size: 10px;&quot;&gt;&lt;font style=&quot;font-size: 10px;&quot;&gt;latch_r3&lt;/font&gt;&lt;/p&gt;" style="text;html=1;align=center;verticalAlign=middle;resizable=0;points=[];autosize=1;strokeColor=none;fillColor=none;fontSize=10;" vertex="1" parent="1">
          <mxGeometry x="267" y="243" width="60" height="40" as="geometry" />
        </mxCell>
        <mxCell id="1-7lZY4niqh5dMCVsXn9-233" style="edgeStyle=orthogonalEdgeStyle;rounded=0;orthogonalLoop=1;jettySize=auto;html=1;endArrow=none;endFill=0;startArrow=classic;startFill=1;jumpStyle=none;exitX=0.86;exitY=1.012;exitDx=0;exitDy=0;exitPerimeter=0;" edge="1" parent="1" source="1-7lZY4niqh5dMCVsXn9-216">
          <mxGeometry relative="1" as="geometry">
            <mxPoint x="660" y="330" as="targetPoint" />
            <mxPoint x="481" y="380" as="sourcePoint" />
            <Array as="points">
              <mxPoint x="482" y="400" />
              <mxPoint x="660" y="400" />
            </Array>
          </mxGeometry>
        </mxCell>
        <mxCell id="1-7lZY4niqh5dMCVsXn9-218" style="edgeStyle=orthogonalEdgeStyle;rounded=0;orthogonalLoop=1;jettySize=auto;html=1;exitX=0.25;exitY=0;exitDx=0;exitDy=0;entryX=1;entryY=0.5;entryDx=0;entryDy=0;jumpStyle=arc;jumpSize=8;" edge="1" parent="1" source="1-7lZY4niqh5dMCVsXn9-216" target="1-7lZY4niqh5dMCVsXn9-6">
          <mxGeometry relative="1" as="geometry" />
        </mxCell>
        <mxCell id="1-7lZY4niqh5dMCVsXn9-66" style="edgeStyle=orthogonalEdgeStyle;rounded=0;orthogonalLoop=1;jettySize=auto;html=1;entryX=0.333;entryY=-0.006;entryDx=0;entryDy=0;entryPerimeter=0;" edge="1" parent="1" target="1-7lZY4niqh5dMCVsXn9-34">
          <mxGeometry relative="1" as="geometry">
            <mxPoint x="280" y="160" as="sourcePoint" />
            <mxPoint x="170" y="372" as="targetPoint" />
            <Array as="points">
              <mxPoint x="230" y="160" />
              <mxPoint x="160" y="160" />
            </Array>
          </mxGeometry>
        </mxCell>
        <mxCell id="1-7lZY4niqh5dMCVsXn9-110" style="edgeStyle=orthogonalEdgeStyle;rounded=0;orthogonalLoop=1;jettySize=auto;html=1;exitX=0.5;exitY=1;exitDx=0;exitDy=0;entryX=0.005;entryY=0.188;entryDx=0;entryDy=0;jumpStyle=arc;jumpSize=8;endSize=5;entryPerimeter=0;" edge="1" parent="1" source="1-7lZY4niqh5dMCVsXn9-6" target="1-7lZY4niqh5dMCVsXn9-105">
          <mxGeometry relative="1" as="geometry">
            <Array as="points">
              <mxPoint x="275" y="160" />
              <mxPoint x="490" y="160" />
              <mxPoint x="490" y="228" />
            </Array>
          </mxGeometry>
        </mxCell>
        <mxCell id="1-7lZY4niqh5dMCVsXn9-6" value="R1" style="rounded=0;whiteSpace=wrap;html=1;" vertex="1" parent="1">
          <mxGeometry x="230" y="119" width="90" height="30" as="geometry" />
        </mxCell>
        <mxCell id="1-7lZY4niqh5dMCVsXn9-65" style="edgeStyle=orthogonalEdgeStyle;rounded=0;orthogonalLoop=1;jettySize=auto;html=1;entryX=0.5;entryY=0;entryDx=0;entryDy=0;targetPerimeterSpacing=0;" edge="1" parent="1" target="1-7lZY4niqh5dMCVsXn9-34">
          <mxGeometry relative="1" as="geometry">
            <mxPoint x="280" y="240" as="sourcePoint" />
            <mxPoint x="180.98000000000002" y="372.55999999999995" as="targetPoint" />
            <Array as="points">
              <mxPoint x="230" y="240" />
              <mxPoint x="170" y="240" />
            </Array>
          </mxGeometry>
        </mxCell>
        <mxCell id="1-7lZY4niqh5dMCVsXn9-7" value="R2" style="rounded=0;whiteSpace=wrap;html=1;" vertex="1" parent="1">
          <mxGeometry x="230" y="199" width="90" height="30" as="geometry" />
        </mxCell>
        <mxCell id="1-7lZY4niqh5dMCVsXn9-10" style="edgeStyle=orthogonalEdgeStyle;rounded=0;orthogonalLoop=1;jettySize=auto;html=1;exitX=0.5;exitY=0;exitDx=0;exitDy=0;endArrow=none;endFill=0;startArrow=open;startFill=0;dashed=1;" edge="1" parent="1" source="1-7lZY4niqh5dMCVsXn9-8">
          <mxGeometry relative="1" as="geometry">
            <mxPoint x="276.1379310344828" y="259" as="targetPoint" />
          </mxGeometry>
        </mxCell>
        <mxCell id="1-7lZY4niqh5dMCVsXn9-64" style="edgeStyle=orthogonalEdgeStyle;rounded=0;orthogonalLoop=1;jettySize=auto;html=1;entryX=0.675;entryY=-0.006;entryDx=0;entryDy=0;entryPerimeter=0;" edge="1" parent="1">
          <mxGeometry relative="1" as="geometry">
            <mxPoint x="280" y="319" as="sourcePoint" />
            <mxPoint x="180.4999999999999" y="368.76" as="targetPoint" />
            <Array as="points">
              <mxPoint x="231" y="319" />
              <mxPoint x="180" y="319" />
              <mxPoint x="180" y="369" />
            </Array>
          </mxGeometry>
        </mxCell>
        <mxCell id="1-7lZY4niqh5dMCVsXn9-8" value="R3" style="rounded=0;whiteSpace=wrap;html=1;" vertex="1" parent="1">
          <mxGeometry x="231" y="279" width="90" height="30" as="geometry" />
        </mxCell>
        <mxCell id="1-7lZY4niqh5dMCVsXn9-20" value="" style="endArrow=none;html=1;rounded=0;" edge="1" parent="1">
          <mxGeometry width="50" height="50" relative="1" as="geometry">
            <mxPoint x="315" y="470" as="sourcePoint" />
            <mxPoint x="285" y="520" as="targetPoint" />
          </mxGeometry>
        </mxCell>
        <mxCell id="1-7lZY4niqh5dMCVsXn9-21" value="" style="endArrow=none;html=1;rounded=0;" edge="1" parent="1">
          <mxGeometry width="50" height="50" relative="1" as="geometry">
            <mxPoint x="215" y="470" as="sourcePoint" />
            <mxPoint x="245" y="520" as="targetPoint" />
          </mxGeometry>
        </mxCell>
        <mxCell id="1-7lZY4niqh5dMCVsXn9-22" value="" style="endArrow=none;html=1;rounded=0;" edge="1" parent="1">
          <mxGeometry width="50" height="50" relative="1" as="geometry">
            <mxPoint x="245" y="520" as="sourcePoint" />
            <mxPoint x="285" y="520" as="targetPoint" />
          </mxGeometry>
        </mxCell>
        <mxCell id="1-7lZY4niqh5dMCVsXn9-23" value="" style="endArrow=none;html=1;rounded=0;" edge="1" parent="1">
          <mxGeometry width="50" height="50" relative="1" as="geometry">
            <mxPoint x="215" y="470" as="sourcePoint" />
            <mxPoint x="245" y="470" as="targetPoint" />
          </mxGeometry>
        </mxCell>
        <mxCell id="1-7lZY4niqh5dMCVsXn9-24" value="" style="endArrow=none;html=1;rounded=0;" edge="1" parent="1">
          <mxGeometry width="50" height="50" relative="1" as="geometry">
            <mxPoint x="285" y="470" as="sourcePoint" />
            <mxPoint x="315" y="470" as="targetPoint" />
          </mxGeometry>
        </mxCell>
        <mxCell id="1-7lZY4niqh5dMCVsXn9-25" value="" style="endArrow=none;html=1;rounded=0;" edge="1" parent="1">
          <mxGeometry width="50" height="50" relative="1" as="geometry">
            <mxPoint x="245" y="470" as="sourcePoint" />
            <mxPoint x="255" y="490" as="targetPoint" />
          </mxGeometry>
        </mxCell>
        <mxCell id="1-7lZY4niqh5dMCVsXn9-26" value="" style="endArrow=none;html=1;rounded=0;" edge="1" parent="1">
          <mxGeometry width="50" height="50" relative="1" as="geometry">
            <mxPoint x="285" y="470" as="sourcePoint" />
            <mxPoint x="275" y="490" as="targetPoint" />
          </mxGeometry>
        </mxCell>
        <mxCell id="1-7lZY4niqh5dMCVsXn9-27" value="" style="endArrow=none;html=1;rounded=0;" edge="1" parent="1">
          <mxGeometry width="50" height="50" relative="1" as="geometry">
            <mxPoint x="255" y="490" as="sourcePoint" />
            <mxPoint x="275" y="490" as="targetPoint" />
          </mxGeometry>
        </mxCell>
        <mxCell id="1-7lZY4niqh5dMCVsXn9-219" style="edgeStyle=orthogonalEdgeStyle;rounded=0;orthogonalLoop=1;jettySize=auto;html=1;exitX=0.5;exitY=1;exitDx=0;exitDy=0;entryX=0.167;entryY=0.99;entryDx=0;entryDy=0;entryPerimeter=0;" edge="1" parent="1" source="1-7lZY4niqh5dMCVsXn9-28" target="1-7lZY4niqh5dMCVsXn9-216">
          <mxGeometry relative="1" as="geometry">
            <Array as="points">
              <mxPoint x="265" y="530" />
              <mxPoint x="440" y="530" />
            </Array>
          </mxGeometry>
        </mxCell>
        <mxCell id="1-7lZY4niqh5dMCVsXn9-277" style="edgeStyle=orthogonalEdgeStyle;rounded=0;orthogonalLoop=1;jettySize=auto;html=1;exitX=0;exitY=0.5;exitDx=0;exitDy=0;endSize=4;" edge="1" parent="1">
          <mxGeometry relative="1" as="geometry">
            <mxPoint x="239" y="510" as="sourcePoint" />
            <mxPoint x="210" y="510" as="targetPoint" />
          </mxGeometry>
        </mxCell>
        <mxCell id="1-7lZY4niqh5dMCVsXn9-28" value="ALU" style="text;html=1;align=center;verticalAlign=middle;whiteSpace=wrap;rounded=0;" vertex="1" parent="1">
          <mxGeometry x="235" y="490" width="60" height="30" as="geometry" />
        </mxCell>
        <mxCell id="1-7lZY4niqh5dMCVsXn9-35" style="edgeStyle=orthogonalEdgeStyle;rounded=0;orthogonalLoop=1;jettySize=auto;html=1;exitX=1;exitY=0.5;exitDx=0;exitDy=0;dashed=1;startArrow=open;startFill=0;endArrow=none;endFill=0;" edge="1" parent="1" source="1-7lZY4niqh5dMCVsXn9-34">
          <mxGeometry relative="1" as="geometry">
            <mxPoint x="230" y="390" as="targetPoint" />
          </mxGeometry>
        </mxCell>
        <mxCell id="1-7lZY4niqh5dMCVsXn9-48" style="edgeStyle=orthogonalEdgeStyle;rounded=0;orthogonalLoop=1;jettySize=auto;html=1;exitX=0.75;exitY=1;exitDx=0;exitDy=0;" edge="1" parent="1" source="1-7lZY4niqh5dMCVsXn9-34">
          <mxGeometry relative="1" as="geometry">
            <mxPoint x="225" y="470" as="targetPoint" />
          </mxGeometry>
        </mxCell>
        <mxCell id="1-7lZY4niqh5dMCVsXn9-34" value="MUX" style="rounded=0;whiteSpace=wrap;html=1;" vertex="1" parent="1">
          <mxGeometry x="140" y="370" width="60" height="40" as="geometry" />
        </mxCell>
        <mxCell id="1-7lZY4niqh5dMCVsXn9-49" style="edgeStyle=orthogonalEdgeStyle;rounded=0;orthogonalLoop=1;jettySize=auto;html=1;exitX=0.25;exitY=1;exitDx=0;exitDy=0;" edge="1" parent="1" source="1-7lZY4niqh5dMCVsXn9-44">
          <mxGeometry relative="1" as="geometry">
            <mxPoint x="305" y="470" as="targetPoint" />
          </mxGeometry>
        </mxCell>
        <mxCell id="1-7lZY4niqh5dMCVsXn9-44" value="MUX" style="rounded=0;whiteSpace=wrap;html=1;" vertex="1" parent="1">
          <mxGeometry x="350" y="370" width="60" height="40" as="geometry" />
        </mxCell>
        <mxCell id="1-7lZY4niqh5dMCVsXn9-46" value="sel_op_1" style="text;html=1;align=center;verticalAlign=middle;resizable=0;points=[];autosize=1;strokeColor=none;fillColor=none;fontSize=10;" vertex="1" parent="1">
          <mxGeometry x="200" y="360" width="60" height="30" as="geometry" />
        </mxCell>
        <mxCell id="1-7lZY4niqh5dMCVsXn9-47" value="sel_op_2" style="text;html=1;align=center;verticalAlign=middle;resizable=0;points=[];autosize=1;strokeColor=none;fillColor=none;fontSize=10;" vertex="1" parent="1">
          <mxGeometry x="290" y="360" width="60" height="30" as="geometry" />
        </mxCell>
        <mxCell id="1-7lZY4niqh5dMCVsXn9-51" style="edgeStyle=orthogonalEdgeStyle;rounded=0;orthogonalLoop=1;jettySize=auto;html=1;exitX=0;exitY=0.5;exitDx=0;exitDy=0;dashed=1;startArrow=open;startFill=0;endArrow=none;endFill=0;entryX=0.2;entryY=0.8;entryDx=0;entryDy=0;entryPerimeter=0;" edge="1" parent="1">
          <mxGeometry relative="1" as="geometry">
            <mxPoint x="187" y="491" as="targetPoint" />
            <mxPoint x="227" y="491" as="sourcePoint" />
          </mxGeometry>
        </mxCell>
        <mxCell id="1-7lZY4niqh5dMCVsXn9-69" style="edgeStyle=orthogonalEdgeStyle;rounded=0;orthogonalLoop=1;jettySize=auto;html=1;dashed=1;startArrow=open;startFill=0;endArrow=none;endFill=0;exitX=0;exitY=0.5;exitDx=0;exitDy=0;" edge="1" parent="1" source="1-7lZY4niqh5dMCVsXn9-44">
          <mxGeometry relative="1" as="geometry">
            <mxPoint x="320" y="390" as="targetPoint" />
            <mxPoint x="440" y="360" as="sourcePoint" />
          </mxGeometry>
        </mxCell>
        <mxCell id="1-7lZY4niqh5dMCVsXn9-73" value="1" style="whiteSpace=wrap;html=1;aspect=fixed;" vertex="1" parent="1">
          <mxGeometry x="145" y="322" width="10" height="10" as="geometry" />
        </mxCell>
        <mxCell id="1-7lZY4niqh5dMCVsXn9-75" style="edgeStyle=orthogonalEdgeStyle;rounded=0;orthogonalLoop=1;jettySize=auto;html=1;entryX=0.25;entryY=0;entryDx=0;entryDy=0;" edge="1" parent="1" source="1-7lZY4niqh5dMCVsXn9-73">
          <mxGeometry relative="1" as="geometry">
            <mxPoint x="150" y="370" as="targetPoint" />
          </mxGeometry>
        </mxCell>
        <mxCell id="1-7lZY4niqh5dMCVsXn9-121" style="edgeStyle=orthogonalEdgeStyle;rounded=0;orthogonalLoop=1;jettySize=auto;html=1;endArrow=none;endFill=0;" edge="1" parent="1">
          <mxGeometry relative="1" as="geometry">
            <mxPoint x="440" y="340" as="targetPoint" />
            <mxPoint x="440" y="340" as="sourcePoint" />
            <Array as="points">
              <mxPoint x="440" y="340" />
            </Array>
          </mxGeometry>
        </mxCell>
        <mxCell id="1-7lZY4niqh5dMCVsXn9-258" style="edgeStyle=orthogonalEdgeStyle;rounded=0;orthogonalLoop=1;jettySize=auto;html=1;exitX=0.556;exitY=1;exitDx=0;exitDy=0;entryX=1;entryY=0.5;entryDx=0;entryDy=0;exitPerimeter=0;" edge="1" parent="1">
          <mxGeometry relative="1" as="geometry">
            <mxPoint x="810.02" y="284" as="sourcePoint" />
            <mxPoint x="619.98" y="428" as="targetPoint" />
            <Array as="points">
              <mxPoint x="809.98" y="428" />
            </Array>
          </mxGeometry>
        </mxCell>
        <mxCell id="1-7lZY4niqh5dMCVsXn9-78" value="&lt;div style=&quot;text-align: justify;&quot;&gt;&lt;span style=&quot;background-color: initial;&quot;&gt;Data memory&lt;/span&gt;&lt;/div&gt;" style="rounded=0;whiteSpace=wrap;html=1;verticalAlign=middle;" vertex="1" parent="1">
          <mxGeometry x="760" y="150" width="90" height="141" as="geometry" />
        </mxCell>
        <mxCell id="1-7lZY4niqh5dMCVsXn9-92" style="edgeStyle=orthogonalEdgeStyle;rounded=0;orthogonalLoop=1;jettySize=auto;html=1;exitX=0.75;exitY=0;exitDx=0;exitDy=0;endArrow=none;endFill=0;startArrow=open;startFill=0;dashed=1;" edge="1" parent="1" source="1-7lZY4niqh5dMCVsXn9-79">
          <mxGeometry relative="1" as="geometry">
            <mxPoint x="704" y="120" as="targetPoint" />
          </mxGeometry>
        </mxCell>
        <mxCell id="1-7lZY4niqh5dMCVsXn9-79" value="AR" style="rounded=0;whiteSpace=wrap;html=1;" vertex="1" parent="1">
          <mxGeometry x="636" y="145" width="90" height="30" as="geometry" />
        </mxCell>
        <mxCell id="1-7lZY4niqh5dMCVsXn9-82" value="&lt;p style=&quot;line-height: 100%; font-size: 10px;&quot;&gt;&lt;font style=&quot;font-size: 10px;&quot;&gt;latch_addr&lt;/font&gt;&lt;/p&gt;" style="text;html=1;align=center;verticalAlign=middle;resizable=0;points=[];autosize=1;strokeColor=none;fillColor=none;fontSize=10;" vertex="1" parent="1">
          <mxGeometry x="676" y="93" width="70" height="40" as="geometry" />
        </mxCell>
        <mxCell id="1-7lZY4niqh5dMCVsXn9-90" style="edgeStyle=orthogonalEdgeStyle;rounded=0;orthogonalLoop=1;jettySize=auto;html=1;entryX=-0.027;entryY=0.069;entryDx=0;entryDy=0;entryPerimeter=0;" edge="1" parent="1" source="1-7lZY4niqh5dMCVsXn9-79" target="1-7lZY4niqh5dMCVsXn9-78">
          <mxGeometry relative="1" as="geometry" />
        </mxCell>
        <mxCell id="1-7lZY4niqh5dMCVsXn9-94" value="operand bus" style="text;html=1;align=center;verticalAlign=middle;whiteSpace=wrap;rounded=0;fontSize=10;" vertex="1" parent="1">
          <mxGeometry x="456" y="88" width="60" height="30" as="geometry" />
        </mxCell>
        <mxCell id="1-7lZY4niqh5dMCVsXn9-95" value="" style="endArrow=classic;html=1;rounded=0;dashed=1;" edge="1" parent="1">
          <mxGeometry width="50" height="50" relative="1" as="geometry">
            <mxPoint x="740" y="254" as="sourcePoint" />
            <mxPoint x="760" y="254" as="targetPoint" />
          </mxGeometry>
        </mxCell>
        <mxCell id="1-7lZY4niqh5dMCVsXn9-96" value="mem_read" style="text;html=1;align=center;verticalAlign=middle;resizable=0;points=[];autosize=1;strokeColor=none;fillColor=none;fontSize=10;" vertex="1" parent="1">
          <mxGeometry x="680" y="238" width="70" height="30" as="geometry" />
        </mxCell>
        <mxCell id="1-7lZY4niqh5dMCVsXn9-97" value="" style="endArrow=classic;html=1;rounded=0;dashed=1;" edge="1" parent="1">
          <mxGeometry width="50" height="50" relative="1" as="geometry">
            <mxPoint x="740" y="274" as="sourcePoint" />
            <mxPoint x="760" y="274" as="targetPoint" />
          </mxGeometry>
        </mxCell>
        <mxCell id="1-7lZY4niqh5dMCVsXn9-98" value="mem_write" style="text;html=1;align=center;verticalAlign=middle;resizable=0;points=[];autosize=1;strokeColor=none;fillColor=none;fontSize=10;" vertex="1" parent="1">
          <mxGeometry x="679" y="259" width="70" height="30" as="geometry" />
        </mxCell>
        <mxCell id="1-7lZY4niqh5dMCVsXn9-112" style="edgeStyle=orthogonalEdgeStyle;rounded=0;orthogonalLoop=1;jettySize=auto;html=1;startArrow=open;startFill=0;endArrow=none;endFill=0;dashed=1;exitX=0.5;exitY=1;exitDx=0;exitDy=0;" edge="1" parent="1" source="1-7lZY4niqh5dMCVsXn9-105">
          <mxGeometry relative="1" as="geometry">
            <mxPoint x="570" y="280" as="targetPoint" />
            <mxPoint x="570" y="280" as="sourcePoint" />
            <Array as="points" />
          </mxGeometry>
        </mxCell>
        <mxCell id="1-7lZY4niqh5dMCVsXn9-105" value="MUX" style="rounded=0;whiteSpace=wrap;html=1;" vertex="1" parent="1">
          <mxGeometry x="540" y="221" width="60" height="40" as="geometry" />
        </mxCell>
        <mxCell id="1-7lZY4niqh5dMCVsXn9-111" style="edgeStyle=orthogonalEdgeStyle;rounded=0;orthogonalLoop=1;jettySize=auto;html=1;exitX=1;exitY=0.25;exitDx=0;exitDy=0;entryX=-0.008;entryY=0.402;entryDx=0;entryDy=0;entryPerimeter=0;" edge="1" parent="1" source="1-7lZY4niqh5dMCVsXn9-105" target="1-7lZY4niqh5dMCVsXn9-78">
          <mxGeometry relative="1" as="geometry" />
        </mxCell>
        <mxCell id="1-7lZY4niqh5dMCVsXn9-113" value="&lt;p style=&quot;line-height: 100%; font-size: 10px;&quot;&gt;sel_r_read&lt;/p&gt;" style="text;html=1;align=center;verticalAlign=middle;resizable=0;points=[];autosize=1;strokeColor=none;fillColor=none;fontSize=10;" vertex="1" parent="1">
          <mxGeometry x="535" y="268" width="70" height="40" as="geometry" />
        </mxCell>
        <mxCell id="1-7lZY4niqh5dMCVsXn9-212" style="edgeStyle=orthogonalEdgeStyle;rounded=0;orthogonalLoop=1;jettySize=auto;html=1;exitX=0.25;exitY=1;exitDx=0;exitDy=0;endArrow=none;endFill=0;startArrow=open;startFill=0;dashed=1;" edge="1" parent="1" source="1-7lZY4niqh5dMCVsXn9-166">
          <mxGeometry relative="1" as="geometry">
            <mxPoint x="712.9655172413793" y="376" as="targetPoint" />
          </mxGeometry>
        </mxCell>
        <mxCell id="1-7lZY4niqh5dMCVsXn9-166" value="output buffer" style="rounded=0;whiteSpace=wrap;html=1;" vertex="1" parent="1">
          <mxGeometry x="693" y="322" width="80" height="30" as="geometry" />
        </mxCell>
        <mxCell id="1-7lZY4niqh5dMCVsXn9-180" style="edgeStyle=orthogonalEdgeStyle;rounded=0;orthogonalLoop=1;jettySize=auto;html=1;startArrow=oval;startFill=1;endSize=6;startSize=4;jumpSize=6;entryX=0;entryY=0.5;entryDx=0;entryDy=0;" edge="1" parent="1">
          <mxGeometry relative="1" as="geometry">
            <mxPoint x="660" y="231" as="sourcePoint" />
            <mxPoint x="693" y="338" as="targetPoint" />
            <Array as="points">
              <mxPoint x="660" y="231" />
              <mxPoint x="660" y="338" />
            </Array>
          </mxGeometry>
        </mxCell>
        <mxCell id="1-7lZY4niqh5dMCVsXn9-213" style="edgeStyle=orthogonalEdgeStyle;rounded=0;orthogonalLoop=1;jettySize=auto;html=1;exitX=0.25;exitY=1;exitDx=0;exitDy=0;endArrow=none;endFill=0;startArrow=open;startFill=0;dashed=1;" edge="1" parent="1">
          <mxGeometry relative="1" as="geometry">
            <mxPoint x="752.9955172413793" y="376" as="targetPoint" />
            <mxPoint x="753.03" y="352" as="sourcePoint" />
          </mxGeometry>
        </mxCell>
        <mxCell id="1-7lZY4niqh5dMCVsXn9-214" value="port1_out" style="text;html=1;align=center;verticalAlign=middle;resizable=0;points=[];autosize=1;strokeColor=none;fillColor=none;fontSize=10;" vertex="1" parent="1">
          <mxGeometry x="672" y="368" width="70" height="30" as="geometry" />
        </mxCell>
        <mxCell id="1-7lZY4niqh5dMCVsXn9-215" value="port2_out" style="text;html=1;align=center;verticalAlign=middle;resizable=0;points=[];autosize=1;strokeColor=none;fillColor=none;fontSize=10;" vertex="1" parent="1">
          <mxGeometry x="724" y="368" width="70" height="30" as="geometry" />
        </mxCell>
        <mxCell id="1-7lZY4niqh5dMCVsXn9-261" style="edgeStyle=orthogonalEdgeStyle;rounded=0;orthogonalLoop=1;jettySize=auto;html=1;startArrow=open;startFill=0;endArrow=none;endFill=0;dashed=1;" edge="1" parent="1" source="1-7lZY4niqh5dMCVsXn9-216">
          <mxGeometry relative="1" as="geometry">
            <mxPoint x="512" y="359" as="targetPoint" />
          </mxGeometry>
        </mxCell>
        <mxCell id="1-7lZY4niqh5dMCVsXn9-216" value="MUX" style="rounded=0;whiteSpace=wrap;html=1;" vertex="1" parent="1">
          <mxGeometry x="430" y="339" width="60" height="40" as="geometry" />
        </mxCell>
        <mxCell id="1-7lZY4niqh5dMCVsXn9-221" style="edgeStyle=orthogonalEdgeStyle;rounded=0;orthogonalLoop=1;jettySize=auto;html=1;exitX=0.003;exitY=0.433;exitDx=0;exitDy=0;exitPerimeter=0;entryX=0.5;entryY=1;entryDx=0;entryDy=0;" edge="1" parent="1" target="1-7lZY4niqh5dMCVsXn9-216">
          <mxGeometry relative="1" as="geometry">
            <mxPoint x="636.24" y="465.99" as="sourcePoint" />
            <mxPoint x="460" y="396" as="targetPoint" />
            <Array as="points">
              <mxPoint x="460" y="466" />
            </Array>
          </mxGeometry>
        </mxCell>
        <mxCell id="1-7lZY4niqh5dMCVsXn9-220" value="input buffer" style="rounded=0;whiteSpace=wrap;html=1;" vertex="1" parent="1">
          <mxGeometry x="636" y="457" width="80" height="30" as="geometry" />
        </mxCell>
        <mxCell id="1-7lZY4niqh5dMCVsXn9-222" style="edgeStyle=orthogonalEdgeStyle;rounded=0;orthogonalLoop=1;jettySize=auto;html=1;exitX=0.25;exitY=1;exitDx=0;exitDy=0;endArrow=none;endFill=0;startArrow=open;startFill=0;dashed=1;" edge="1" parent="1">
          <mxGeometry relative="1" as="geometry">
            <mxPoint x="655.9655172413793" y="511" as="targetPoint" />
            <mxPoint x="656" y="487" as="sourcePoint" />
          </mxGeometry>
        </mxCell>
        <mxCell id="1-7lZY4niqh5dMCVsXn9-223" style="edgeStyle=orthogonalEdgeStyle;rounded=0;orthogonalLoop=1;jettySize=auto;html=1;exitX=0.25;exitY=1;exitDx=0;exitDy=0;endArrow=none;endFill=0;startArrow=open;startFill=0;dashed=1;" edge="1" parent="1">
          <mxGeometry relative="1" as="geometry">
            <mxPoint x="695.9955172413793" y="511" as="targetPoint" />
            <mxPoint x="696.03" y="487" as="sourcePoint" />
          </mxGeometry>
        </mxCell>
        <mxCell id="1-7lZY4niqh5dMCVsXn9-224" value="port1_in" style="text;html=1;align=center;verticalAlign=middle;resizable=0;points=[];autosize=1;strokeColor=none;fillColor=none;fontSize=10;" vertex="1" parent="1">
          <mxGeometry x="620" y="503" width="60" height="30" as="geometry" />
        </mxCell>
        <mxCell id="1-7lZY4niqh5dMCVsXn9-225" value="port2_in" style="text;html=1;align=center;verticalAlign=middle;resizable=0;points=[];autosize=1;strokeColor=none;fillColor=none;fontSize=10;" vertex="1" parent="1">
          <mxGeometry x="672" y="503" width="60" height="30" as="geometry" />
        </mxCell>
        <mxCell id="1-7lZY4niqh5dMCVsXn9-227" value="sel_r_write" style="text;html=1;align=center;verticalAlign=middle;resizable=0;points=[];autosize=1;strokeColor=none;fillColor=none;fontSize=10;" vertex="1" parent="1">
          <mxGeometry x="503" y="341" width="70" height="30" as="geometry" />
        </mxCell>
        <mxCell id="1-7lZY4niqh5dMCVsXn9-239" style="edgeStyle=orthogonalEdgeStyle;rounded=0;orthogonalLoop=1;jettySize=auto;html=1;exitX=0.5;exitY=1;exitDx=0;exitDy=0;startArrow=classic;startFill=1;endArrow=none;endFill=0;" edge="1" parent="1" source="1-7lZY4niqh5dMCVsXn9-237">
          <mxGeometry relative="1" as="geometry">
            <mxPoint x="540.0909090909092" y="540" as="targetPoint" />
          </mxGeometry>
        </mxCell>
        <mxCell id="1-7lZY4niqh5dMCVsXn9-243" style="edgeStyle=orthogonalEdgeStyle;rounded=0;orthogonalLoop=1;jettySize=auto;html=1;exitX=0.75;exitY=1;exitDx=0;exitDy=0;endArrow=none;endFill=0;startArrow=open;startFill=0;dashed=1;" edge="1" parent="1" source="1-7lZY4niqh5dMCVsXn9-237">
          <mxGeometry relative="1" as="geometry">
            <mxPoint x="562.5" y="530" as="targetPoint" />
          </mxGeometry>
        </mxCell>
        <mxCell id="1-7lZY4niqh5dMCVsXn9-237" value="OR" style="rounded=0;whiteSpace=wrap;html=1;" vertex="1" parent="1">
          <mxGeometry x="495" y="480" width="90" height="30" as="geometry" />
        </mxCell>
        <mxCell id="1-7lZY4niqh5dMCVsXn9-238" style="edgeStyle=orthogonalEdgeStyle;rounded=0;orthogonalLoop=1;jettySize=auto;html=1;entryX=0.339;entryY=1.019;entryDx=0;entryDy=0;entryPerimeter=0;" edge="1" parent="1" source="1-7lZY4niqh5dMCVsXn9-237" target="1-7lZY4niqh5dMCVsXn9-216">
          <mxGeometry relative="1" as="geometry" />
        </mxCell>
        <mxCell id="1-7lZY4niqh5dMCVsXn9-244" value="latch_or" style="text;html=1;align=center;verticalAlign=middle;resizable=0;points=[];autosize=1;strokeColor=none;fillColor=none;fontSize=10;" vertex="1" parent="1">
          <mxGeometry x="545" y="520" width="60" height="30" as="geometry" />
        </mxCell>
        <mxCell id="1-7lZY4niqh5dMCVsXn9-252" style="edgeStyle=orthogonalEdgeStyle;rounded=0;orthogonalLoop=1;jettySize=auto;html=1;endSize=5;jumpStyle=arc;jumpSize=8;entryX=0;entryY=0.75;entryDx=0;entryDy=0;" edge="1" parent="1" source="1-7lZY4niqh5dMCVsXn9-248" target="1-7lZY4niqh5dMCVsXn9-264">
          <mxGeometry relative="1" as="geometry">
            <mxPoint x="540" y="257" as="targetPoint" />
            <Array as="points">
              <mxPoint x="575" y="320" />
              <mxPoint x="630" y="320" />
              <mxPoint x="630" y="200" />
              <mxPoint x="520" y="200" />
              <mxPoint x="520" y="170" />
            </Array>
          </mxGeometry>
        </mxCell>
        <mxCell id="1-7lZY4niqh5dMCVsXn9-248" value="DR" style="rounded=0;whiteSpace=wrap;html=1;" vertex="1" parent="1">
          <mxGeometry x="530" y="420" width="90" height="30" as="geometry" />
        </mxCell>
        <mxCell id="1-7lZY4niqh5dMCVsXn9-256" style="edgeStyle=orthogonalEdgeStyle;rounded=0;orthogonalLoop=1;jettySize=auto;html=1;exitX=0;exitY=0.75;exitDx=0;exitDy=0;startArrow=open;startFill=0;endArrow=none;endFill=0;dashed=1;" edge="1" parent="1" source="1-7lZY4niqh5dMCVsXn9-248">
          <mxGeometry relative="1" as="geometry">
            <mxPoint x="508" y="442" as="targetPoint" />
          </mxGeometry>
        </mxCell>
        <mxCell id="1-7lZY4niqh5dMCVsXn9-257" style="edgeStyle=orthogonalEdgeStyle;rounded=0;orthogonalLoop=1;jettySize=auto;html=1;exitX=0;exitY=0.25;exitDx=0;exitDy=0;entryX=0.679;entryY=1.023;entryDx=0;entryDy=0;entryPerimeter=0;" edge="1" parent="1" source="1-7lZY4niqh5dMCVsXn9-248" target="1-7lZY4niqh5dMCVsXn9-216">
          <mxGeometry relative="1" as="geometry" />
        </mxCell>
        <mxCell id="1-7lZY4niqh5dMCVsXn9-259" value="latch_dr" style="text;html=1;align=center;verticalAlign=middle;resizable=0;points=[];autosize=1;strokeColor=none;fillColor=none;fontSize=10;" vertex="1" parent="1">
          <mxGeometry x="456" y="426" width="60" height="30" as="geometry" />
        </mxCell>
        <mxCell id="1-7lZY4niqh5dMCVsXn9-262" style="edgeStyle=orthogonalEdgeStyle;rounded=0;orthogonalLoop=1;jettySize=auto;html=1;exitX=0.5;exitY=0;exitDx=0;exitDy=0;endArrow=none;endFill=0;startArrow=open;startFill=0;dashed=1;" edge="1" parent="1">
          <mxGeometry relative="1" as="geometry">
            <mxPoint x="275.9979310344828" y="179" as="targetPoint" />
            <mxPoint x="275.86" y="199" as="sourcePoint" />
          </mxGeometry>
        </mxCell>
        <mxCell id="1-7lZY4niqh5dMCVsXn9-263" style="edgeStyle=orthogonalEdgeStyle;rounded=0;orthogonalLoop=1;jettySize=auto;html=1;exitX=0.5;exitY=0;exitDx=0;exitDy=0;endArrow=none;endFill=0;startArrow=open;startFill=0;dashed=1;" edge="1" parent="1">
          <mxGeometry relative="1" as="geometry">
            <mxPoint x="275.9979310344828" y="99" as="targetPoint" />
            <mxPoint x="275.86" y="119" as="sourcePoint" />
          </mxGeometry>
        </mxCell>
        <mxCell id="1-7lZY4niqh5dMCVsXn9-63" style="edgeStyle=orthogonalEdgeStyle;rounded=0;orthogonalLoop=1;jettySize=auto;html=1;entryX=0.75;entryY=0;entryDx=0;entryDy=0;entryPerimeter=0;startArrow=oval;startFill=1;endSize=6;startSize=4;" edge="1" parent="1" target="1-7lZY4niqh5dMCVsXn9-44">
          <mxGeometry relative="1" as="geometry">
            <mxPoint x="395" y="160" as="sourcePoint" />
            <mxPoint x="395" y="372" as="targetPoint" />
            <Array as="points">
              <mxPoint x="395" y="180" />
            </Array>
          </mxGeometry>
        </mxCell>
        <mxCell id="1-7lZY4niqh5dMCVsXn9-70" value="" style="endArrow=classic;html=1;rounded=0;entryX=1;entryY=0.5;entryDx=0;entryDy=0;jumpStyle=arc;startArrow=oval;startFill=1;startSize=4;" edge="1" parent="1" target="1-7lZY4niqh5dMCVsXn9-7">
          <mxGeometry width="50" height="50" relative="1" as="geometry">
            <mxPoint x="445" y="214" as="sourcePoint" />
            <mxPoint x="400" y="300" as="targetPoint" />
          </mxGeometry>
        </mxCell>
        <mxCell id="1-7lZY4niqh5dMCVsXn9-114" style="edgeStyle=orthogonalEdgeStyle;rounded=0;orthogonalLoop=1;jettySize=auto;html=1;exitX=0.5;exitY=1;exitDx=0;exitDy=0;jumpStyle=arc;jumpSize=7;endSize=5;" edge="1" parent="1" source="1-7lZY4niqh5dMCVsXn9-7">
          <mxGeometry relative="1" as="geometry">
            <mxPoint x="540" y="240" as="targetPoint" />
            <Array as="points">
              <mxPoint x="275" y="240" />
            </Array>
          </mxGeometry>
        </mxCell>
        <mxCell id="1-7lZY4niqh5dMCVsXn9-62" style="edgeStyle=orthogonalEdgeStyle;rounded=0;orthogonalLoop=1;jettySize=auto;html=1;entryX=0.501;entryY=0;entryDx=0;entryDy=0;entryPerimeter=0;startArrow=oval;startFill=1;endSize=6;startSize=4;" edge="1" parent="1" target="1-7lZY4niqh5dMCVsXn9-44">
          <mxGeometry relative="1" as="geometry">
            <mxPoint x="380" y="240" as="sourcePoint" />
            <mxPoint x="380.0344827586207" y="372" as="targetPoint" />
            <Array as="points">
              <mxPoint x="380" y="250" />
            </Array>
          </mxGeometry>
        </mxCell>
        <mxCell id="1-7lZY4niqh5dMCVsXn9-71" value="" style="endArrow=classic;html=1;rounded=0;entryX=1;entryY=0.5;entryDx=0;entryDy=0;jumpStyle=arc;jumpSize=8;startArrow=oval;startFill=1;startSize=4;" edge="1" parent="1">
          <mxGeometry width="50" height="50" relative="1" as="geometry">
            <mxPoint x="445" y="294" as="sourcePoint" />
            <mxPoint x="321" y="293.65999999999997" as="targetPoint" />
          </mxGeometry>
        </mxCell>
        <mxCell id="1-7lZY4niqh5dMCVsXn9-115" style="edgeStyle=orthogonalEdgeStyle;rounded=0;orthogonalLoop=1;jettySize=auto;html=1;exitX=0.5;exitY=1;exitDx=0;exitDy=0;jumpStyle=arc;jumpSize=8;endSize=5;entryX=-0.003;entryY=0.673;entryDx=0;entryDy=0;entryPerimeter=0;" edge="1" parent="1" source="1-7lZY4niqh5dMCVsXn9-8" target="1-7lZY4niqh5dMCVsXn9-105">
          <mxGeometry relative="1" as="geometry">
            <mxPoint x="298.5" y="308" as="sourcePoint" />
            <mxPoint x="539.1600000000001" y="249.47999999999996" as="targetPoint" />
            <Array as="points">
              <mxPoint x="276" y="319" />
              <mxPoint x="490" y="319" />
              <mxPoint x="490" y="248" />
            </Array>
          </mxGeometry>
        </mxCell>
        <mxCell id="1-7lZY4niqh5dMCVsXn9-61" style="edgeStyle=orthogonalEdgeStyle;rounded=0;orthogonalLoop=1;jettySize=auto;html=1;entryX=0.25;entryY=0;entryDx=0;entryDy=0;startArrow=oval;startFill=1;startSize=4;" edge="1" parent="1">
          <mxGeometry relative="1" as="geometry">
            <mxPoint x="365" y="319" as="sourcePoint" />
            <mxPoint x="365" y="369" as="targetPoint" />
            <Array as="points">
              <mxPoint x="365" y="339" />
            </Array>
          </mxGeometry>
        </mxCell>
        <mxCell id="1-7lZY4niqh5dMCVsXn9-265" style="edgeStyle=orthogonalEdgeStyle;rounded=0;orthogonalLoop=1;jettySize=auto;html=1;endArrow=none;endFill=0;startArrow=classic;startFill=1;" edge="1" parent="1" source="1-7lZY4niqh5dMCVsXn9-264">
          <mxGeometry relative="1" as="geometry">
            <mxPoint x="520" y="100" as="targetPoint" />
            <Array as="points">
              <mxPoint x="520" y="150" />
            </Array>
          </mxGeometry>
        </mxCell>
        <mxCell id="1-7lZY4niqh5dMCVsXn9-267" style="edgeStyle=orthogonalEdgeStyle;rounded=0;orthogonalLoop=1;jettySize=auto;html=1;entryX=0;entryY=0.5;entryDx=0;entryDy=0;" edge="1" parent="1" source="1-7lZY4niqh5dMCVsXn9-264" target="1-7lZY4niqh5dMCVsXn9-79">
          <mxGeometry relative="1" as="geometry" />
        </mxCell>
        <mxCell id="1-7lZY4niqh5dMCVsXn9-268" style="edgeStyle=orthogonalEdgeStyle;rounded=0;orthogonalLoop=1;jettySize=auto;html=1;exitX=0.5;exitY=0;exitDx=0;exitDy=0;startArrow=open;startFill=0;endArrow=none;endFill=0;curved=0;dashed=1;" edge="1" parent="1" source="1-7lZY4niqh5dMCVsXn9-264">
          <mxGeometry relative="1" as="geometry">
            <mxPoint x="570" y="120" as="targetPoint" />
          </mxGeometry>
        </mxCell>
        <mxCell id="1-7lZY4niqh5dMCVsXn9-264" value="MUX" style="rounded=0;whiteSpace=wrap;html=1;" vertex="1" parent="1">
          <mxGeometry x="540" y="140" width="60" height="40" as="geometry" />
        </mxCell>
        <mxCell id="1-7lZY4niqh5dMCVsXn9-269" value="&lt;p style=&quot;line-height: 100%; font-size: 10px;&quot;&gt;sel_addr&lt;/p&gt;" style="text;html=1;align=center;verticalAlign=middle;resizable=0;points=[];autosize=1;strokeColor=none;fillColor=none;fontSize=10;" vertex="1" parent="1">
          <mxGeometry x="553" y="95" width="60" height="40" as="geometry" />
        </mxCell>
        <mxCell id="1-7lZY4niqh5dMCVsXn9-278" style="edgeStyle=orthogonalEdgeStyle;rounded=0;orthogonalLoop=1;jettySize=auto;html=1;exitX=0;exitY=0.5;exitDx=0;exitDy=0;endSize=4;endArrow=none;endFill=0;" edge="1" parent="1" source="1-7lZY4niqh5dMCVsXn9-274">
          <mxGeometry relative="1" as="geometry">
            <mxPoint x="160.00000000000006" y="510.09302325581393" as="targetPoint" />
          </mxGeometry>
        </mxCell>
        <mxCell id="1-7lZY4niqh5dMCVsXn9-274" value="z" style="whiteSpace=wrap;html=1;aspect=fixed;" vertex="1" parent="1">
          <mxGeometry x="200" y="505" width="10" height="10" as="geometry" />
        </mxCell>
        <mxCell id="1-7lZY4niqh5dMCVsXn9-279" value="operand bus" style="text;html=1;align=center;verticalAlign=middle;whiteSpace=wrap;rounded=0;fontSize=10;" vertex="1" parent="1">
          <mxGeometry x="477" y="522" width="60" height="30" as="geometry" />
        </mxCell>
        <mxCell id="1-7lZY4niqh5dMCVsXn9-296" style="edgeStyle=orthogonalEdgeStyle;rounded=0;orthogonalLoop=1;jettySize=auto;html=1;entryX=0.5;entryY=0;entryDx=0;entryDy=0;" edge="1" parent="1" source="1-7lZY4niqh5dMCVsXn9-283" target="1-7lZY4niqh5dMCVsXn9-286">
          <mxGeometry relative="1" as="geometry">
            <Array as="points" />
          </mxGeometry>
        </mxCell>
        <mxCell id="1-7lZY4niqh5dMCVsXn9-283" value="&lt;div style=&quot;&quot;&gt;&lt;span style=&quot;background-color: initial;&quot;&gt;Instructins memory&lt;/span&gt;&lt;/div&gt;" style="rounded=0;whiteSpace=wrap;html=1;verticalAlign=middle;align=center;" vertex="1" parent="1">
          <mxGeometry x="1550" y="129" width="90" height="141" as="geometry" />
        </mxCell>
        <mxCell id="1-7lZY4niqh5dMCVsXn9-295" style="edgeStyle=orthogonalEdgeStyle;rounded=0;orthogonalLoop=1;jettySize=auto;html=1;exitX=1;exitY=0.5;exitDx=0;exitDy=0;" edge="1" parent="1" source="1-7lZY4niqh5dMCVsXn9-284">
          <mxGeometry relative="1" as="geometry">
            <mxPoint x="1550" y="160" as="targetPoint" />
          </mxGeometry>
        </mxCell>
        <mxCell id="1-7lZY4niqh5dMCVsXn9-318" style="edgeStyle=orthogonalEdgeStyle;rounded=0;orthogonalLoop=1;jettySize=auto;html=1;" edge="1" parent="1" source="1-7lZY4niqh5dMCVsXn9-284">
          <mxGeometry relative="1" as="geometry">
            <mxPoint x="1250" y="200" as="targetPoint" />
            <Array as="points">
              <mxPoint x="1440" y="130" />
              <mxPoint x="1220" y="130" />
              <mxPoint x="1220" y="200" />
              <mxPoint x="1250" y="200" />
            </Array>
          </mxGeometry>
        </mxCell>
        <mxCell id="1-7lZY4niqh5dMCVsXn9-333" style="edgeStyle=orthogonalEdgeStyle;rounded=0;orthogonalLoop=1;jettySize=auto;html=1;endArrow=none;endFill=0;startArrow=open;startFill=0;dashed=1;" edge="1" parent="1" source="1-7lZY4niqh5dMCVsXn9-284">
          <mxGeometry relative="1" as="geometry">
            <mxPoint x="1440" y="194" as="targetPoint" />
          </mxGeometry>
        </mxCell>
        <mxCell id="1-7lZY4niqh5dMCVsXn9-284" value="IP" style="rounded=0;whiteSpace=wrap;html=1;" vertex="1" parent="1">
          <mxGeometry x="1390" y="145" width="100" height="30" as="geometry" />
        </mxCell>
        <mxCell id="1-7lZY4niqh5dMCVsXn9-302" style="edgeStyle=orthogonalEdgeStyle;rounded=0;orthogonalLoop=1;jettySize=auto;html=1;entryX=1;entryY=0.5;entryDx=0;entryDy=0;" edge="1" parent="1" source="1-7lZY4niqh5dMCVsXn9-286" target="1-7lZY4niqh5dMCVsXn9-287">
          <mxGeometry relative="1" as="geometry">
            <Array as="points">
              <mxPoint x="1595" y="383" />
            </Array>
          </mxGeometry>
        </mxCell>
        <mxCell id="1-7lZY4niqh5dMCVsXn9-347" style="edgeStyle=orthogonalEdgeStyle;rounded=0;orthogonalLoop=1;jettySize=auto;html=1;endArrow=none;endFill=0;startArrow=open;startFill=0;dashed=1;" edge="1" parent="1" source="1-7lZY4niqh5dMCVsXn9-286">
          <mxGeometry relative="1" as="geometry">
            <mxPoint x="1524" y="318.5" as="targetPoint" />
          </mxGeometry>
        </mxCell>
        <mxCell id="1-7lZY4niqh5dMCVsXn9-286" value="IR" style="rounded=0;whiteSpace=wrap;html=1;" vertex="1" parent="1">
          <mxGeometry x="1545" y="303.5" width="100" height="30" as="geometry" />
        </mxCell>
        <mxCell id="1-7lZY4niqh5dMCVsXn9-312" style="edgeStyle=orthogonalEdgeStyle;rounded=0;orthogonalLoop=1;jettySize=auto;html=1;entryX=1;entryY=0.25;entryDx=0;entryDy=0;exitX=0.5;exitY=1;exitDx=0;exitDy=0;" edge="1" parent="1" source="1-7lZY4niqh5dMCVsXn9-287" target="1-7lZY4niqh5dMCVsXn9-306">
          <mxGeometry relative="1" as="geometry">
            <mxPoint x="1430" y="420" as="sourcePoint" />
            <Array as="points">
              <mxPoint x="1440" y="414" />
              <mxPoint x="1440" y="462" />
            </Array>
          </mxGeometry>
        </mxCell>
        <mxCell id="1-7lZY4niqh5dMCVsXn9-287" value="Instruction Decoder" style="rounded=0;whiteSpace=wrap;html=1;" vertex="1" parent="1">
          <mxGeometry x="1400" y="352" width="80" height="62" as="geometry" />
        </mxCell>
        <mxCell id="1-7lZY4niqh5dMCVsXn9-289" value="Data Path" style="whiteSpace=wrap;html=1;aspect=fixed;" vertex="1" parent="1">
          <mxGeometry x="941" y="333.5" width="99" height="99" as="geometry" />
        </mxCell>
        <mxCell id="1-7lZY4niqh5dMCVsXn9-304" style="edgeStyle=orthogonalEdgeStyle;rounded=0;orthogonalLoop=1;jettySize=auto;html=1;entryX=0.5;entryY=1;entryDx=0;entryDy=0;" edge="1" parent="1" source="1-7lZY4niqh5dMCVsXn9-291" target="1-7lZY4niqh5dMCVsXn9-300">
          <mxGeometry relative="1" as="geometry" />
        </mxCell>
        <mxCell id="1-7lZY4niqh5dMCVsXn9-308" style="edgeStyle=orthogonalEdgeStyle;rounded=0;orthogonalLoop=1;jettySize=auto;html=1;entryX=1;entryY=0.75;entryDx=0;entryDy=0;exitX=0.5;exitY=1;exitDx=0;exitDy=0;" edge="1" parent="1" source="1-7lZY4niqh5dMCVsXn9-291" target="1-7lZY4niqh5dMCVsXn9-306">
          <mxGeometry relative="1" as="geometry">
            <mxPoint x="1470" y="540" as="targetPoint" />
            <Array as="points">
              <mxPoint x="1245" y="540" />
              <mxPoint x="1440" y="540" />
              <mxPoint x="1440" y="482" />
            </Array>
          </mxGeometry>
        </mxCell>
        <mxCell id="1-7lZY4niqh5dMCVsXn9-335" style="edgeStyle=orthogonalEdgeStyle;rounded=0;orthogonalLoop=1;jettySize=auto;html=1;startArrow=open;startFill=0;endArrow=none;endFill=0;dashed=1;" edge="1" parent="1" source="1-7lZY4niqh5dMCVsXn9-291">
          <mxGeometry relative="1" as="geometry">
            <mxPoint x="1200" y="472" as="targetPoint" />
          </mxGeometry>
        </mxCell>
        <mxCell id="1-7lZY4niqh5dMCVsXn9-291" value="μPC" style="whiteSpace=wrap;html=1;aspect=fixed;" vertex="1" parent="1">
          <mxGeometry x="1225" y="452" width="40" height="40" as="geometry" />
        </mxCell>
        <mxCell id="1-7lZY4niqh5dMCVsXn9-293" style="edgeStyle=orthogonalEdgeStyle;rounded=0;orthogonalLoop=1;jettySize=auto;html=1;endArrow=open;endFill=0;dashed=1;" edge="1" parent="1">
          <mxGeometry relative="1" as="geometry">
            <mxPoint x="1040" y="383" as="targetPoint" />
            <mxPoint x="1100" y="383" as="sourcePoint" />
          </mxGeometry>
        </mxCell>
        <mxCell id="1-7lZY4niqh5dMCVsXn9-292" value="Control Logic" style="rounded=0;whiteSpace=wrap;html=1;" vertex="1" parent="1">
          <mxGeometry x="1100" y="350" width="70" height="66" as="geometry" />
        </mxCell>
        <mxCell id="1-7lZY4niqh5dMCVsXn9-305" style="edgeStyle=orthogonalEdgeStyle;rounded=0;orthogonalLoop=1;jettySize=auto;html=1;exitX=0;exitY=0.5;exitDx=0;exitDy=0;entryX=1;entryY=0.5;entryDx=0;entryDy=0;" edge="1" parent="1" source="1-7lZY4niqh5dMCVsXn9-300" target="1-7lZY4niqh5dMCVsXn9-292">
          <mxGeometry relative="1" as="geometry" />
        </mxCell>
        <mxCell id="1-7lZY4niqh5dMCVsXn9-336" style="edgeStyle=orthogonalEdgeStyle;rounded=0;orthogonalLoop=1;jettySize=auto;html=1;exitX=1;exitY=0.75;exitDx=0;exitDy=0;startArrow=classicThin;startFill=1;endArrow=none;endFill=0;dashed=1;" edge="1" parent="1" source="1-7lZY4niqh5dMCVsXn9-300">
          <mxGeometry relative="1" as="geometry">
            <mxPoint x="1300" y="399.6363636363636" as="targetPoint" />
          </mxGeometry>
        </mxCell>
        <mxCell id="1-7lZY4niqh5dMCVsXn9-300" value="Control Store" style="rounded=0;whiteSpace=wrap;html=1;" vertex="1" parent="1">
          <mxGeometry x="1210" y="350" width="70" height="66" as="geometry" />
        </mxCell>
        <mxCell id="1-7lZY4niqh5dMCVsXn9-307" style="edgeStyle=orthogonalEdgeStyle;rounded=0;orthogonalLoop=1;jettySize=auto;html=1;entryX=1;entryY=0.5;entryDx=0;entryDy=0;" edge="1" parent="1" source="1-7lZY4niqh5dMCVsXn9-306" target="1-7lZY4niqh5dMCVsXn9-291">
          <mxGeometry relative="1" as="geometry" />
        </mxCell>
        <mxCell id="1-7lZY4niqh5dMCVsXn9-313" style="edgeStyle=orthogonalEdgeStyle;rounded=0;orthogonalLoop=1;jettySize=auto;html=1;exitX=0.5;exitY=0;exitDx=0;exitDy=0;startArrow=open;startFill=0;endArrow=none;endFill=0;dashed=1;" edge="1" parent="1" source="1-7lZY4niqh5dMCVsXn9-306">
          <mxGeometry relative="1" as="geometry">
            <mxPoint x="1350" y="435" as="targetPoint" />
          </mxGeometry>
        </mxCell>
        <mxCell id="1-7lZY4niqh5dMCVsXn9-306" value="MUX" style="rounded=0;whiteSpace=wrap;html=1;" vertex="1" parent="1">
          <mxGeometry x="1320" y="452" width="60" height="40" as="geometry" />
        </mxCell>
        <mxCell id="1-7lZY4niqh5dMCVsXn9-309" value="+1" style="rounded=0;whiteSpace=wrap;html=1;" vertex="1" parent="1">
          <mxGeometry x="1320" y="530" width="40" height="20" as="geometry" />
        </mxCell>
        <mxCell id="1-7lZY4niqh5dMCVsXn9-317" style="edgeStyle=orthogonalEdgeStyle;rounded=0;orthogonalLoop=1;jettySize=auto;html=1;entryX=0;entryY=0.5;entryDx=0;entryDy=0;" edge="1" parent="1" source="1-7lZY4niqh5dMCVsXn9-316" target="1-7lZY4niqh5dMCVsXn9-284">
          <mxGeometry relative="1" as="geometry" />
        </mxCell>
        <mxCell id="1-7lZY4niqh5dMCVsXn9-331" style="edgeStyle=orthogonalEdgeStyle;rounded=0;orthogonalLoop=1;jettySize=auto;html=1;dashed=1;startArrow=open;startFill=0;endArrow=none;endFill=0;" edge="1" parent="1" source="1-7lZY4niqh5dMCVsXn9-316">
          <mxGeometry relative="1" as="geometry">
            <mxPoint x="1280.0000000000002" y="250" as="targetPoint" />
          </mxGeometry>
        </mxCell>
        <mxCell id="1-7lZY4niqh5dMCVsXn9-316" value="MUX" style="rounded=0;whiteSpace=wrap;html=1;" vertex="1" parent="1">
          <mxGeometry x="1250" y="189" width="60" height="40" as="geometry" />
        </mxCell>
        <mxCell id="1-7lZY4niqh5dMCVsXn9-319" value="+1" style="rounded=0;whiteSpace=wrap;html=1;" vertex="1" parent="1">
          <mxGeometry x="1280" y="119" width="40" height="20" as="geometry" />
        </mxCell>
        <mxCell id="1-7lZY4niqh5dMCVsXn9-324" style="edgeStyle=orthogonalEdgeStyle;rounded=0;orthogonalLoop=1;jettySize=auto;html=1;jumpStyle=arc;jumpSize=8;entryX=0.75;entryY=0;entryDx=0;entryDy=0;" edge="1" parent="1" source="1-7lZY4niqh5dMCVsXn9-287" target="1-7lZY4niqh5dMCVsXn9-289">
          <mxGeometry relative="1" as="geometry">
            <mxPoint x="1000" y="333" as="targetPoint" />
            <Array as="points">
              <mxPoint x="1330" y="383" />
              <mxPoint x="1330" y="310" />
              <mxPoint x="1015" y="310" />
              <mxPoint x="1015" y="334" />
            </Array>
          </mxGeometry>
        </mxCell>
        <mxCell id="1-7lZY4niqh5dMCVsXn9-327" style="edgeStyle=orthogonalEdgeStyle;rounded=0;orthogonalLoop=1;jettySize=auto;html=1;exitX=0;exitY=0.75;exitDx=0;exitDy=0;endArrow=oval;endFill=1;endSize=4;startArrow=classic;startFill=1;" edge="1" parent="1" source="1-7lZY4niqh5dMCVsXn9-316">
          <mxGeometry relative="1" as="geometry">
            <mxPoint x="1220" y="310" as="targetPoint" />
          </mxGeometry>
        </mxCell>
        <mxCell id="1-7lZY4niqh5dMCVsXn9-328" value="operand" style="text;html=1;align=center;verticalAlign=middle;whiteSpace=wrap;rounded=0;fontSize=10;" vertex="1" parent="1">
          <mxGeometry x="1350" y="363" width="40" height="20" as="geometry" />
        </mxCell>
        <mxCell id="1-7lZY4niqh5dMCVsXn9-329" value="mc addr" style="text;html=1;align=center;verticalAlign=middle;whiteSpace=wrap;rounded=0;fontSize=10;" vertex="1" parent="1">
          <mxGeometry x="1440" y="420" width="40" height="20" as="geometry" />
        </mxCell>
        <mxCell id="1-7lZY4niqh5dMCVsXn9-330" value="mc" style="text;html=1;align=center;verticalAlign=middle;whiteSpace=wrap;rounded=0;fontSize=10;" vertex="1" parent="1">
          <mxGeometry x="1170" y="362" width="40" height="20" as="geometry" />
        </mxCell>
        <mxCell id="1-7lZY4niqh5dMCVsXn9-337" value="read_mc" style="text;html=1;align=center;verticalAlign=middle;whiteSpace=wrap;rounded=0;fontSize=10;" vertex="1" parent="1">
          <mxGeometry x="1302" y="389" width="40" height="20" as="geometry" />
        </mxCell>
        <mxCell id="1-7lZY4niqh5dMCVsXn9-338" value="latch_ip" style="text;html=1;align=center;verticalAlign=middle;whiteSpace=wrap;rounded=0;fontSize=10;" vertex="1" parent="1">
          <mxGeometry x="1420" y="189.5" width="40" height="20" as="geometry" />
        </mxCell>
        <mxCell id="1-7lZY4niqh5dMCVsXn9-339" value="latch_ir" style="text;html=1;align=center;verticalAlign=middle;whiteSpace=wrap;rounded=0;fontSize=10;" vertex="1" parent="1">
          <mxGeometry x="1487" y="305.5" width="40" height="20" as="geometry" />
        </mxCell>
        <mxCell id="1-7lZY4niqh5dMCVsXn9-340" value="sel_ip" style="text;html=1;align=center;verticalAlign=middle;whiteSpace=wrap;rounded=0;fontSize=10;" vertex="1" parent="1">
          <mxGeometry x="1260" y="246" width="40" height="20" as="geometry" />
        </mxCell>
        <mxCell id="1-7lZY4niqh5dMCVsXn9-341" value="sel_mc_addr" style="text;html=1;align=center;verticalAlign=middle;whiteSpace=wrap;rounded=0;fontSize=10;" vertex="1" parent="1">
          <mxGeometry x="1330" y="419" width="40" height="20" as="geometry" />
        </mxCell>
        <mxCell id="1-7lZY4niqh5dMCVsXn9-342" value="latch_mc_addr" style="text;html=1;align=center;verticalAlign=middle;whiteSpace=wrap;rounded=0;fontSize=10;" vertex="1" parent="1">
          <mxGeometry x="1148" y="461" width="40" height="20" as="geometry" />
        </mxCell>
        <mxCell id="1-7lZY4niqh5dMCVsXn9-348" style="edgeStyle=orthogonalEdgeStyle;rounded=0;orthogonalLoop=1;jettySize=auto;html=1;entryX=0.5;entryY=0;entryDx=0;entryDy=0;jumpStyle=arc;jumpSize=8;exitX=0.5;exitY=0;exitDx=0;exitDy=0;" edge="1" parent="1" source="1-7lZY4niqh5dMCVsXn9-315" target="1-7lZY4niqh5dMCVsXn9-287">
          <mxGeometry relative="1" as="geometry">
            <mxPoint x="970" y="290" as="sourcePoint" />
          </mxGeometry>
        </mxCell>
        <mxCell id="1-7lZY4niqh5dMCVsXn9-349" value="" style="edgeStyle=orthogonalEdgeStyle;rounded=0;orthogonalLoop=1;jettySize=auto;html=1;exitX=0.25;exitY=0;exitDx=0;exitDy=0;entryX=0.5;entryY=0;entryDx=0;entryDy=0;jumpStyle=arc;jumpSize=8;" edge="1" parent="1" source="1-7lZY4niqh5dMCVsXn9-289" target="1-7lZY4niqh5dMCVsXn9-315">
          <mxGeometry relative="1" as="geometry">
            <mxPoint x="955" y="334" as="sourcePoint" />
            <mxPoint x="1440" y="352" as="targetPoint" />
            <Array as="points" />
          </mxGeometry>
        </mxCell>
        <mxCell id="1-7lZY4niqh5dMCVsXn9-315" value="z" style="whiteSpace=wrap;html=1;aspect=fixed;" vertex="1" parent="1">
          <mxGeometry x="960" y="303.5" width="13" height="13" as="geometry" />
        </mxCell>
      </root>
    </mxGraphModel>
  </diagram>
</mxfile>
